PathFileType	4	(X/Y/Z)	C:\Users\italobelli\Desktop\GitHub\PTbot_officialCBL\Personal_Results\FLX02_noisy2.trc
DataRate	CameraRate	NumFrames	NumMarkers	Units	OrigDataRate	OrigDataStartFrame	OrigNumFrames
106.125000	106.125000	25	9	m	106.125000	107	850
Frame#	Time		gu		centelbow		EpL		centpxt8		centijc7		ij		ts		aa		ai
			X1	Y1	Z1	X2	Y2	Z2	X3	Y3	Z3	X4	Y4	Z4	X5	Y5	Z5	X6	Y6	Z6	X7	Y7	Z7	X8	Y8	Z8	X9	Y9	Z9

107	0.99882	-0.069307	-0.020861	0.16791	-0.064974	-0.26351	0.192	-0.046167	-0.25542	0.21691	-0.046816	-0.15316	-0.008669	-0.046816	0.031938	-0.008669	0	0	0	-0.13756	0.023683	0.05629	-0.10354	0.018504	0.17049	-0.15089	-0.088966	0.060598
108	1.0082	-0.069256	-0.020867	0.16788	-0.063204	-0.26354	0.19228	-0.044445	-0.25539	0.21718	-0.046816	-0.15316	-0.008669	-0.046816	0.031938	-0.008669	0	0	0	-0.13767	0.023632	0.056362	-0.10351	0.01849	0.1705	-0.1509	-0.089011	0.060656
109	1.0177	-0.069201	-0.02085	0.16785	-0.061273	-0.26348	0.19256	-0.042574	-0.25526	0.21746	-0.046816	-0.15316	-0.008669	-0.046816	0.031938	-0.008669	0	0	0	-0.13779	0.023559	0.056438	-0.10348	0.018486	0.17051	-0.1509	-0.089077	0.060748
110	1.0271	-0.06914	-0.020813	0.16781	-0.059186	-0.26333	0.19286	-0.040558	-0.25503	0.21775	-0.046816	-0.15316	-0.008669	-0.046816	0.031938	-0.008669	0	0	0	-0.13791	0.023465	0.056517	-0.10344	0.018493	0.17052	-0.1509	-0.089165	0.060873
111	1.0365	-0.069074	-0.020754	0.16777	-0.05695	-0.26309	0.19317	-0.038403	-0.25469	0.21804	-0.046816	-0.15316	-0.008669	-0.046816	0.031938	-0.008669	0	0	0	-0.13804	0.02335	0.0566	-0.1034	0.018511	0.17054	-0.15088	-0.089272	0.061031
112	1.0459	-0.069003	-0.020676	0.16774	-0.05457	-0.26276	0.19348	-0.036116	-0.25426	0.21835	-0.046816	-0.15316	-0.008669	-0.046816	0.031938	-0.008669	0	0	0	-0.13817	0.023216	0.056687	-0.10336	0.018538	0.17055	-0.15086	-0.089399	0.06122
113	1.0554	-0.068927	-0.020577	0.1677	-0.052052	-0.26235	0.19381	-0.033701	-0.25373	0.21867	-0.046816	-0.15316	-0.008669	-0.046816	0.031938	-0.008669	0	0	0	-0.1383	0.023062	0.056777	-0.10331	0.018576	0.17056	-0.15083	-0.089545	0.06144
114	1.0648	-0.068847	-0.02046	0.16766	-0.049404	-0.26186	0.19414	-0.031165	-0.25311	0.21899	-0.046816	-0.15316	-0.008669	-0.046816	0.031938	-0.008669	0	0	0	-0.13844	0.022889	0.05687	-0.10326	0.018622	0.17057	-0.1508	-0.089709	0.06169
115	1.0742	-0.068763	-0.020323	0.16761	-0.046631	-0.26129	0.19448	-0.028513	-0.25239	0.21932	-0.046816	-0.15316	-0.008669	-0.046816	0.031938	-0.008669	0	0	0	-0.13857	0.022699	0.056966	-0.10321	0.018679	0.17059	-0.15075	-0.089889	0.061968
116	1.0836	-0.068675	-0.020169	0.16757	-0.043739	-0.26064	0.19483	-0.025753	-0.25159	0.21966	-0.046816	-0.15316	-0.008669	-0.046816	0.031938	-0.008669	0	0	0	-0.13872	0.022492	0.057066	-0.10316	0.018744	0.1706	-0.15071	-0.090087	0.062274
117	1.0931	-0.068583	-0.019997	0.16753	-0.040735	-0.25992	0.19518	-0.022889	-0.2507	0.22	-0.046816	-0.15316	-0.008669	-0.046816	0.031938	-0.008669	0	0	0	-0.13886	0.022269	0.057168	-0.10311	0.018818	0.17061	-0.15065	-0.0903	0.062606
118	1.1025	-0.068487	-0.019809	0.16748	-0.037625	-0.25912	0.19554	-0.019927	-0.24973	0.22036	-0.046816	-0.15316	-0.008669	-0.046816	0.031938	-0.008669	0	0	0	-0.13901	0.022029	0.057273	-0.10305	0.0189	0.17062	-0.15059	-0.090528	0.062964
119	1.1119	-0.068388	-0.019604	0.16743	-0.034415	-0.25826	0.19591	-0.016873	-0.24868	0.22072	-0.046816	-0.15316	-0.008669	-0.046816	0.031938	-0.008669	0	0	0	-0.13916	0.021775	0.057381	-0.10299	0.018991	0.17064	-0.15052	-0.09077	0.063347
120	1.1213	-0.068285	-0.019383	0.16738	-0.031111	-0.25732	0.19629	-0.013734	-0.24755	0.22108	-0.046816	-0.15316	-0.008669	-0.046816	0.031938	-0.008669	0	0	0	-0.13931	0.021506	0.057492	-0.10293	0.01909	0.17065	-0.15045	-0.091025	0.063754
121	1.1307	-0.068179	-0.019146	0.16734	-0.02772	-0.25632	0.19667	-0.010515	-0.24634	0.22145	-0.046816	-0.15316	-0.008669	-0.046816	0.031938	-0.008669	0	0	0	-0.13947	0.021224	0.057605	-0.10286	0.019196	0.17067	-0.15037	-0.091293	0.064183
122	1.1402	-0.06807	-0.018895	0.16729	-0.024248	-0.25525	0.19706	-0.0072221	-0.24507	0.22183	-0.046816	-0.15316	-0.008669	-0.046816	0.031938	-0.008669	0	0	0	-0.13963	0.020929	0.05772	-0.1028	0.01931	0.17068	-0.15028	-0.091573	0.064634
123	1.1496	-0.067959	-0.01863	0.16723	-0.020701	-0.25413	0.19745	-0.003861	-0.24372	0.22221	-0.046816	-0.15316	-0.008669	-0.046816	0.031938	-0.008669	0	0	0	-0.13978	0.020622	0.057837	-0.10273	0.019431	0.17069	-0.15019	-0.091864	0.065106
124	1.159	-0.067844	-0.018351	0.16718	-0.017085	-0.25294	0.19785	-0.0004378	-0.2423	0.2226	-0.046816	-0.15316	-0.008669	-0.046816	0.031938	-0.008669	0	0	0	-0.13994	0.020303	0.057957	-0.10266	0.019559	0.17071	-0.15009	-0.092166	0.065598
125	1.1684	-0.067728	-0.018058	0.16713	-0.013407	-0.25169	0.19826	0.0030417	-0.24082	0.22299	-0.046816	-0.15316	-0.008669	-0.046816	0.031938	-0.008669	0	0	0	-0.1401	0.019974	0.058079	-0.10259	0.019694	0.17072	-0.14999	-0.092477	0.066108
126	1.1779	-0.067609	-0.017753	0.16707	-0.0096724	-0.25039	0.19867	0.0065714	-0.23928	0.22339	-0.046816	-0.15316	-0.008669	-0.046816	0.031938	-0.008669	0	0	0	-0.14027	0.019634	0.058202	-0.10251	0.019835	0.17074	-0.14989	-0.092797	0.066636
127	1.1873	-0.067487	-0.017436	0.16702	-0.0058878	-0.24904	0.19909	0.010146	-0.23768	0.22379	-0.046816	-0.15316	-0.008669	-0.046816	0.031938	-0.008669	0	0	0	-0.14043	0.019285	0.058328	-0.10244	0.019982	0.17075	-0.14978	-0.093125	0.067182
128	1.1967	-0.067364	-0.017108	0.16696	-0.0020594	-0.24764	0.19951	0.013758	-0.23602	0.2242	-0.046816	-0.15316	-0.008669	-0.046816	0.031938	-0.008669	0	0	0	-0.14059	0.018928	0.058455	-0.10236	0.020135	0.17076	-0.14966	-0.09346	0.067743
129	1.2061	-0.067239	-0.016769	0.1669	0.0018066	-0.24618	0.19994	0.017404	-0.23431	0.22461	-0.046816	-0.15316	-0.008669	-0.046816	0.031938	-0.008669	0	0	0	-0.14076	0.018562	0.058583	-0.10228	0.020294	0.17078	-0.14954	-0.093802	0.068319
130	1.2155	-0.067113	-0.016419	0.16685	0.0057039	-0.24468	0.20037	0.021076	-0.23254	0.22503	-0.046816	-0.15316	-0.008669	-0.046816	0.031938	-0.008669	0	0	0	-0.14092	0.018189	0.058713	-0.1022	0.020458	0.17079	-0.14942	-0.09415	0.068909
131	1.225	-0.066985	-0.016059	0.16679	0.0096263	-0.24314	0.2008	0.024769	-0.23073	0.22544	-0.046816	-0.15316	-0.008669	-0.046816	0.031938	-0.008669	0	0	0	-0.14109	0.01781	0.058845	-0.10212	0.020627	0.17081	-0.1493	-0.094503	0.069511
